<?xml version="1.0" standalone="no"?>
<svg xmlns:xlink="http://www.w3.org/1999/xlink" id="wave" style="transform:rotate(180deg); transition: 0.3s" viewBox="0 0 1440 100" version="1.1" xmlns="http://www.w3.org/2000/svg"><defs><linearGradient id="sw-gradient-0" x1="0" x2="0" y1="1" y2="0"><stop stop-color="rgba(255, 249, 234, 1)" offset="0%"/><stop stop-color="rgba(255, 249, 234, 1)" offset="100%"/></linearGradient></defs><path style="transform:translate(0, 0px); opacity:1" fill="url(#sw-gradient-0)" d="M0,50L48,48.3C96,47,192,43,288,48.3C384,53,480,67,576,60C672,53,768,27,864,13.3C960,0,1056,0,1152,5C1248,10,1344,20,1440,28.3C1536,37,1632,43,1728,41.7C1824,40,1920,30,2016,30C2112,30,2208,40,2304,36.7C2400,33,2496,17,2592,16.7C2688,17,2784,33,2880,48.3C2976,63,3072,77,3168,71.7C3264,67,3360,43,3456,31.7C3552,20,3648,20,3744,25C3840,30,3936,40,4032,41.7C4128,43,4224,37,4320,35C4416,33,4512,37,4608,43.3C4704,50,4800,60,4896,68.3C4992,77,5088,83,5184,85C5280,87,5376,83,5472,76.7C5568,70,5664,60,5760,58.3C5856,57,5952,63,6048,56.7C6144,50,6240,30,6336,23.3C6432,17,6528,23,6624,30C6720,37,6816,43,6864,46.7L6912,50L6912,100L6864,100C6816,100,6720,100,6624,100C6528,100,6432,100,6336,100C6240,100,6144,100,6048,100C5952,100,5856,100,5760,100C5664,100,5568,100,5472,100C5376,100,5280,100,5184,100C5088,100,4992,100,4896,100C4800,100,4704,100,4608,100C4512,100,4416,100,4320,100C4224,100,4128,100,4032,100C3936,100,3840,100,3744,100C3648,100,3552,100,3456,100C3360,100,3264,100,3168,100C3072,100,2976,100,2880,100C2784,100,2688,100,2592,100C2496,100,2400,100,2304,100C2208,100,2112,100,2016,100C1920,100,1824,100,1728,100C1632,100,1536,100,1440,100C1344,100,1248,100,1152,100C1056,100,960,100,864,100C768,100,672,100,576,100C480,100,384,100,288,100C192,100,96,100,48,100L0,100Z"/></svg>